<svg xmlns="http://www.w3.org/2000/svg" width="1200" height="630" viewBox="0 0 1200 630" role="img" aria-labelledby="title desc">
  <title id="title">i41 证件水印</title>
  <desc id="desc">图片本地处理，添加防盗用用途水印</desc>
  <defs>
    <linearGradient id="bg" x1="0" y1="0" x2="1" y2="1">
      <stop offset="0" stop-color="#f8fbff"/>
      <stop offset="1" stop-color="#dceaff"/>
    </linearGradient>
    <linearGradient id="blue" x1="0" y1="0" x2="1" y2="1">
      <stop offset="0" stop-color="#246bfd"/>
      <stop offset="1" stop-color="#1453d4"/>
    </linearGradient>
    <filter id="shadow" x="-20%" y="-20%" width="140%" height="140%">
      <feDropShadow dx="0" dy="14" stdDeviation="18" flood-color="#17335f" flood-opacity=".16"/>
    </filter>
    <clipPath id="docClip"><rect x="738" y="183" width="362" height="300" rx="24"/></clipPath>
  </defs>
  <rect width="1200" height="630" fill="url(#bg)"/>
  <circle cx="1100" cy="60" r="210" fill="#c9ddff" opacity=".6"/>
  <circle cx="85" cy="605" r="170" fill="#cfe2ff" opacity=".65"/>
  <g font-family="Inter, PingFang SC, Microsoft YaHei, sans-serif">
    <g transform="translate(76 82)">
      <rect width="72" height="72" rx="20" fill="url(#blue)"/>
      <text x="36" y="50" text-anchor="middle" font-size="38" font-weight="800" fill="#fff">水</text>
      <text x="96" y="51" font-size="32" font-weight="800" fill="#102444">i41 证件水印</text>
    </g>
    <text x="76" y="235" font-size="62" font-weight="850" fill="#102444">给敏感证件添加</text>
    <text x="76" y="310" font-size="62" font-weight="850" fill="#246bfd">明确用途水印</text>
    <text x="78" y="366" font-size="27" font-weight="650" fill="#52647f">图片本地处理 · 实时预览 · 多图批量下载</text>
    <g transform="translate(76 420)">
      <rect width="166" height="54" rx="27" fill="#fff" stroke="#c4d7f7"/>
      <path d="M32 29v-7a10 10 0 0 1 20 0v7m-23 0h26v19H29z" fill="none" stroke="#246bfd" stroke-width="4" stroke-linejoin="round"/>
      <text x="70" y="35" font-size="20" font-weight="750" fill="#17335f">无需上传</text>
      <rect x="182" width="188" height="54" rx="27" fill="#fff" stroke="#c4d7f7"/>
      <path d="M211 18h24v20h-24zm4-6h16" fill="none" stroke="#246bfd" stroke-width="4" stroke-linecap="round"/>
      <text x="250" y="35" font-size="20" font-weight="750" fill="#17335f">浏览器内完成</text>
    </g>
    <text x="78" y="540" font-size="19" fill="#61738f">支持 JPG、PNG、WebP、HEIC、HEIF</text>
    <g filter="url(#shadow)">
      <rect x="682" y="86" width="442" height="458" rx="30" fill="#fff"/>
      <path d="M712 86h382a30 30 0 0 1 30 30v42H682v-42a30 30 0 0 1 30-30z" fill="url(#blue)"/>
      <circle cx="720" cy="122" r="7" fill="#fff" opacity=".95"/><circle cx="746" cy="122" r="7" fill="#fff" opacity=".7"/><circle cx="772" cy="122" r="7" fill="#fff" opacity=".48"/>
      <text x="1090" y="130" text-anchor="end" font-size="17" font-weight="650" fill="#fff">本地处理 · 隐私优先</text>
      <rect x="738" y="183" width="362" height="300" rx="24" fill="#edf4ff" stroke="#bfd4f7" stroke-width="2"/>
      <g clip-path="url(#docClip)" transform="rotate(-24 919 333)" font-size="24" font-weight="750" fill="#246bfd" opacity=".42">
        <text x="690" y="235">仅供办理业务使用</text><text x="900" y="235">仅供办理业务使用</text>
        <text x="690" y="310">仅供办理业务使用</text><text x="900" y="310">仅供办理业务使用</text>
        <text x="690" y="385">仅供办理业务使用</text><text x="900" y="385">仅供办理业务使用</text>
        <text x="690" y="460">仅供办理业务使用</text><text x="900" y="460">仅供办理业务使用</text>
        <text x="690" y="535">仅供办理业务使用</text><text x="900" y="535">仅供办理业务使用</text>
      </g>
      <g transform="translate(1002 410)">
        <path d="M50 0l50 20v42c0 38-21 67-50 79C21 129 0 100 0 62V20z" fill="url(#blue)" stroke="#fff" stroke-width="9"/>
        <rect x="31" y="59" width="38" height="35" rx="7" fill="#fff"/>
        <path d="M38 59v-9a12 12 0 0 1 24 0v9" fill="none" stroke="#fff" stroke-width="8"/>
      </g>
    </g>
  </g>
</svg>
